<svg width="120" height="120" viewBox="0 0 120 120" fill="none" xmlns="http://www.w3.org/2000/svg">
    <path d="M0.668883 38.4456L8.11605 44.548L1.06084 58.5837C-2.46677 65.093 3.60855 71.3989 7.52811 73.6365C11.2517 75.8741 17.327 76.0775 22.8144 76.0775L32.8093 59.194L40.2564 63.4657L27.3219 38.4456L0.864861 38.649L0.668883 38.4456ZM2.04073 73.0262L18.1109 103.945C21.4425 108.217 27.5179 109.234 33.7892 109.031H50.8392V79.739L18.5029 79.5355C13.4075 79.9424 6.94018 78.7219 1.84475 73.0262H2.04073ZM103.165 16.0698L94.3464 19.9347L85.9193 6.71272C82.1957 0.406831 73.9647 2.84782 70.2411 5.28881C66.5175 7.7298 63.5778 13.0186 60.8341 17.9006L70.2411 35.1909L62.9899 39.8695L90.4268 40.2763L103.165 16.0698ZM73.5727 0.406831L39.6685 0C34.5731 0.813663 30.6535 5.89906 27.7138 11.7981L19.4828 27.2577L44.176 41.4968L60.0502 12.4084C62.206 7.7298 66.3215 2.23757 73.5727 0.610247V0.406831ZM75.1405 119.812L76.1204 110.048L91.4067 108.827C98.6579 108.421 100.422 99.8771 100.226 95.1985C100.03 90.7234 97.0901 85.4346 94.1504 80.5526L75.1092 80.7408L74.5212 71.9939L60.9987 96.8106L75.3051 120L75.1405 119.812ZM102.742 100.879L119.4 70.3666C121.164 65.2812 118.812 59.3821 115.285 53.8899L106.27 38.8371L82.3603 54.2967L99.2145 82.7749C102.154 87.0467 104.702 93.3525 102.546 100.879H102.742Z"
          fill="#5da600"/>
</svg>